<svg xmlns="http://www.w3.org/2000/svg" width="46.374" height="65" viewBox="0 0 46.374 65">
  <g id="_011-birthday_invitation" data-name="011-birthday invitation" transform="translate(-28.417 -9.5)">
    <path id="Trazado_207" data-name="Trazado 207" d="M74.42,18.5H67.994a.494.494,0,1,1,0-.989H74.42a.494.494,0,0,1,0,.989Z" transform="translate(-19.603 -3.798)" fill="#36ce77" stroke="#36ce77" stroke-width="1"/>
    <path id="Trazado_208" data-name="Trazado 208" d="M71.337,128.632H31.871a2.963,2.963,0,0,1-2.954-2.966v-7.652a.493.493,0,0,1,.492-.494H73.8a.493.493,0,0,1,.492.494v7.652a2.963,2.963,0,0,1-2.954,2.966ZM29.9,118.509v7.157a1.973,1.973,0,0,0,1.969,1.977H71.337a1.973,1.973,0,0,0,1.969-1.977v-7.157Z" transform="translate(0 -54.632)" fill="#36ce77" stroke="#36ce77" stroke-width="1"/>
    <path id="Trazado_209" data-name="Trazado 209" d="M73.8,18.413H29.409a.493.493,0,0,1-.492-.494V12.966A2.963,2.963,0,0,1,31.871,10H71.337a2.963,2.963,0,0,1,2.954,2.966v4.953A.493.493,0,0,1,73.8,18.413Zm-43.9-.989h43.4V12.966a1.973,1.973,0,0,0-1.969-1.977H31.871A1.973,1.973,0,0,0,29.9,12.966Z" fill="#36ce77" stroke="#36ce77" stroke-width="1"/>
    <path id="Trazado_210" data-name="Trazado 210" d="M73.8,71.731H29.409a.493.493,0,0,1-.492-.494V25.514a.493.493,0,0,1,.492-.494H73.8a.493.493,0,0,1,.492.494V71.237A.493.493,0,0,1,73.8,71.731Zm-43.9-.989h43.4V26.009H29.9Z" transform="translate(0 -7.596)" fill="#36ce77" stroke="#36ce77" stroke-width="1"/>
    <path id="Trazado_211" data-name="Trazado 211" d="M72.177,128.7a2.76,2.76,0,1,1,2.76-2.76,2.76,2.76,0,0,1-2.76,2.76Zm0-4.531a1.771,1.771,0,1,0,1.771,1.771A1.771,1.771,0,0,0,72.177,124.166Z" transform="translate(-20.573 -57.493)" fill="#36ce77" stroke="#36ce77" stroke-width="1"/>
    <path id="Trazado_212" data-name="Trazado 212" d="M64.038,59.454c-5.708,0-10.715-6.534-10.715-13.981,0-6.636,4.506-11.452,10.715-11.452s10.714,4.816,10.714,11.452C74.752,52.92,69.746,59.454,64.038,59.454Zm0-24.445c-5.726,0-9.726,4.3-9.726,10.464,0,6.8,4.635,12.993,9.726,12.993s9.726-6.193,9.726-12.993c0-6.161-4-10.464-9.726-10.464Z" transform="translate(-12.434 -12.226)" fill="#36ce77" stroke="#36ce77" stroke-width="1"/>
    <path id="Trazado_213" data-name="Trazado 213" d="M74.426,87.75H68.717a.494.494,0,0,1-.483-.6l.84-3.876a.494.494,0,0,1,.966.211l-.711,3.277h4.484l-.7-3.277a.494.494,0,1,1,.966-.208l.834,3.875a.494.494,0,0,1-.483.6Z" transform="translate(-19.969 -37.016)" fill="#36ce77" stroke="#36ce77" stroke-width="1"/>
    <path id="Trazado_214" data-name="Trazado 214" d="M74.494,100.51a.494.494,0,0,1-.494-.494v-8.8a.494.494,0,0,1,.989,0v8.8A.494.494,0,0,1,74.494,100.51Z" transform="translate(-22.89 -41.013)" fill="#36ce77" stroke="#36ce77" stroke-width="1"/>
  </g>
</svg>
