<svg xmlns="http://www.w3.org/2000/svg" width="65.121" height="65.105" viewBox="0 0 65.121 65.105">
  <g id="_001-firecracker" data-name="001-firecracker" transform="translate(-9.487 -9.502)">
    <path id="Trazado_197" data-name="Trazado 197" d="M107.937,36.206a.493.493,0,0,1-.349-.144L87.006,15.481a.493.493,0,0,1,.26-.833l25.217-4.635a.493.493,0,0,1,.574.574L108.421,35.8a.493.493,0,0,1-.338.381A.485.485,0,0,1,107.937,36.206ZM88.367,15.448,107.619,34.7l4.339-23.591Z" transform="translate(-38.96)" fill="#f77e6a" stroke="#f77e6a" stroke-width="1"/>
    <path id="Trazado_198" data-name="Trazado 198" d="M47.518,70.908a.49.49,0,0,1-.349-.144L33.452,57.043a.493.493,0,0,1,0-.7L63.29,26.5a.493.493,0,0,1,.7,0l13.72,13.72a.493.493,0,0,1,0,.7L47.866,70.762a.49.49,0,0,1-.349.145ZM34.5,56.694,47.518,69.717,76.661,40.574,63.638,27.55Z" transform="translate(-11.814 -8.29)" fill="#f77e6a" stroke="#f77e6a" stroke-width="1"/>
    <path id="Trazado_199" data-name="Trazado 199" d="M100.132,48.964a.486.486,0,0,1-.2-.044L81.016,40.393a.493.493,0,1,1,.405-.9l18.913,8.527a.493.493,0,0,1-.2.943Z" transform="translate(-35.85 -14.926)" fill="#f77e6a" stroke="#f77e6a" stroke-width="1"/>
    <path id="Trazado_200" data-name="Trazado 200" d="M85.177,63.92a.493.493,0,0,1-.2-.043L66.061,55.348a.493.493,0,1,1,.406-.9L85.38,62.976a.493.493,0,0,1-.2.943Z" transform="translate(-28.269 -22.506)" fill="#f77e6a" stroke="#f77e6a" stroke-width="1"/>
    <path id="Trazado_201" data-name="Trazado 201" d="M70.222,78.874a.493.493,0,0,1-.2-.044L51.107,70.3a.493.493,0,0,1,.406-.9l18.913,8.527a.493.493,0,0,1-.2.943Z" transform="translate(-20.689 -30.087)" fill="#f77e6a" stroke="#f77e6a" stroke-width="1"/>
    <path id="Trazado_202" data-name="Trazado 202" d="M55.267,93.829a.493.493,0,0,1-.2-.044L36.152,85.258a.493.493,0,1,1,.405-.9l18.913,8.529a.493.493,0,0,1-.2.943Z" transform="translate(-13.109 -37.667)" fill="#f77e6a" stroke="#f77e6a" stroke-width="1"/>
    <path id="Trazado_203" data-name="Trazado 203" d="M10.493,105.347a.493.493,0,0,1-.349-.842l9.718-9.718a.493.493,0,1,1,.7.7L10.842,105.2A.493.493,0,0,1,10.493,105.347Z" transform="translate(0 -42.902)" fill="#f77e6a" stroke="#f77e6a" stroke-width="1"/>
    <path id="Trazado_204" data-name="Trazado 204" d="M16.493,115.117a.493.493,0,0,1-.349-.842l9.718-9.718a.493.493,0,1,1,.7.7l-9.721,9.718A.493.493,0,0,1,16.493,115.117Z" transform="translate(-3.041 -47.854)" fill="#f77e6a" stroke="#f77e6a" stroke-width="1"/>
    <path id="Trazado_205" data-name="Trazado 205" d="M28.547,118.826a.493.493,0,0,1-.349-.842l9.718-9.718a.493.493,0,1,1,.7.7L28.9,118.682A.493.493,0,0,1,28.547,118.826Z" transform="translate(-9.151 -49.734)" fill="#f77e6a" stroke="#f77e6a" stroke-width="1"/>
    <path id="Trazado_206" data-name="Trazado 206" d="M34.143,129a.493.493,0,0,1-.349-.842l9.718-9.718a.493.493,0,0,1,.7.7l-9.718,9.718a.49.49,0,0,1-.349.144Z" transform="translate(-11.988 -54.89)" fill="#f77e6a" stroke="#f77e6a" stroke-width="1"/>
  </g>
</svg>
