<svg xmlns="http://www.w3.org/2000/svg" width="65.328" height="65.629" viewBox="0 0 65.328 65.629">
  <g id="_037-stars" data-name="037-stars" transform="translate(-10 -9.673)">
    <path id="Trazado_226" data-name="Trazado 226" d="M55.5,74.8a.5.5,0,0,1-.484-.378L51.079,58.7l-7.514,5.6a.5.5,0,0,1-.794-.449l.91-9.444-15.6,4.459a.5.5,0,0,1-.484-.837L39.213,46.8,28.637,42.956a.5.5,0,0,1,0-.937L39.213,38.17,27.6,26.935a.5.5,0,0,1,.484-.837l15.6,4.459-.91-9.442a.5.5,0,0,1,.794-.449l7.514,5.6,3.934-15.721a.5.5,0,0,1,.967,0l3.942,15.733,7.781-5.62a.5.5,0,0,1,.787.465l-1.157,9.425L82.913,26.1a.5.5,0,0,1,.484.837L71.785,38.17l10.567,3.849a.5.5,0,0,1,0,.936L71.785,46.8,83.4,58.039a.5.5,0,0,1-.484.837L67.334,54.424l1.157,9.425a.5.5,0,0,1-.787.465l-7.783-5.622L55.979,74.425a.5.5,0,0,1-.483.377ZM51.381,57.356a.5.5,0,0,1,.483.378L55.5,72.249l3.639-14.516a.5.5,0,0,1,.776-.283l7.451,5.383L66.252,53.8a.5.5,0,0,1,.631-.54l14.391,4.112-10.755-10.4a.5.5,0,0,1,.176-.826l10.033-3.653L70.7,38.834a.5.5,0,0,1-.176-.826l10.753-10.4L66.881,31.718a.5.5,0,0,1-.631-.54l1.11-9.039-7.451,5.383a.5.5,0,0,1-.776-.283L55.495,12.724,51.862,27.239a.5.5,0,0,1-.781.279l-7.21-5.379.872,9.052a.5.5,0,0,1-.633.529L29.721,27.606l10.76,10.4a.5.5,0,0,1-.176.827L30.263,42.487,40.3,46.14a.5.5,0,0,1,.176.827l-10.757,10.4L44.11,53.256a.5.5,0,0,1,.633.527l-.872,9.052,7.212-5.378a.5.5,0,0,1,.3-.1Z" transform="translate(-8.748 0)" fill="#ffb9e5" stroke="#ffb9e5" stroke-width="1"/>
    <path id="Trazado_227" data-name="Trazado 227" d="M50.523,22.534a2.562,2.562,0,1,1,2.563-2.562,2.562,2.562,0,0,1-2.563,2.562Zm0-4.127a1.565,1.565,0,1,0,1.566,1.565A1.565,1.565,0,0,0,50.523,18.407Z" transform="translate(-19.039 -3.63)" fill="#ffb9e5"/>
    <path id="Trazado_228" data-name="Trazado 228" d="M111.91,21.426a3.113,3.113,0,1,1,3.115-3.115A3.113,3.113,0,0,1,111.91,21.426Zm0-5.229a2.116,2.116,0,1,0,2.118,2.113A2.116,2.116,0,0,0,111.91,16.2Z" transform="translate(-49.552 -2.521)" fill="#ffb9e5"/>
    <path id="Trazado_229" data-name="Trazado 229" d="M14.024,118.934a.5.5,0,0,1-.437-.259l-1.176-2.151-2.151-1.176a.5.5,0,0,1,0-.874L12.41,113.3l1.176-2.151a.5.5,0,0,1,.874,0l1.176,2.151,2.151,1.176a.5.5,0,0,1,0,.874l-2.151,1.176-1.176,2.151a.5.5,0,0,1-.437.259Zm-2.486-4.024,1.479.809a.5.5,0,0,1,.2.2l.81,1.479.809-1.479a.5.5,0,0,1,.2-.2l1.479-.809-1.479-.809a.5.5,0,0,1-.2-.2l-.809-1.479-.81,1.479a.5.5,0,0,1-.2.2Z" transform="translate(0 -50.512)" fill="#ffb9e5"/>
    <path id="Trazado_230" data-name="Trazado 230" d="M96.588,129.52a.5.5,0,0,1-.437-.259l-1.175-2.153-2.15-1.176a.5.5,0,0,1,0-.875l2.15-1.176,1.177-2.151a.519.519,0,0,1,.874,0L98.2,123.88l2.15,1.176a.5.5,0,0,1,0,.875l-2.15,1.176-1.176,2.151a.5.5,0,0,1-.439.262ZM94.1,125.5l1.479.809a.5.5,0,0,1,.2.2l.809,1.479L97.4,126.5a.491.491,0,0,1,.2-.2l1.479-.809-1.479-.809a.494.494,0,0,1-.2-.2l-.809-1.479-.81,1.477a.5.5,0,0,1-.2.2Z" transform="translate(-41.409 -55.829)" fill="#ffb9e5"/>
  </g>
</svg>
