<svg xmlns="http://www.w3.org/2000/svg" xmlns:xlink="http://www.w3.org/1999/xlink" width="26.808" height="24.94" viewBox="0 0 26.808 24.94">
  <defs>
    <clipPath id="clip-path">
      <rect id="Rectángulo_26" data-name="Rectángulo 26" width="26.808" height="24.94" fill="#36ce77"/>
    </clipPath>
  </defs>
  <g id="Grupo_476" data-name="Grupo 476" clip-path="url(#clip-path)">
    <path id="Trazado_174" data-name="Trazado 174" d="M14.606.646c.175-.318.4-.639.7-.645a.779.779,0,0,1,.843.428,2.385,2.385,0,0,1,.287.692,2.726,2.726,0,0,1,.08.4l.959,7.612c.1.458.365.638.911.641L24.987,9q.158-.019.318-.023c.165,0,.328-.006.5-.006,1.188,0,1.368,1.025.3,1.938l-5.811,5.178a.856.856,0,0,0-.331,1.061l2.274,5.5a2.762,2.762,0,0,1,.192.7c.177,1.362-.791,2.2-2.612,1.055L14.19,21.195h0a1.105,1.105,0,0,0-1.115.015h0l-7.18,3.523c-.836.419-1.706.019-1.461-1.078h0l2.593-7.229c.192-.5-.046-.741-.358-1.052h0L.637,9.6c-1.021-.9-.8-1.922.557-1.773l8.521.847h0a.852.852,0,0,0,.823-.511,1.1,1.1,0,0,0,.06-.1Z" transform="translate(0 0)" fill="#36ce77"/>
  </g>
</svg>
