<svg xmlns="http://www.w3.org/2000/svg" width="26.864" height="24" viewBox="0 0 26.864 24">
  <path id="Trazado_258" data-name="Trazado 258" d="M14.583,26.455a.974.974,0,0,1-.649-.247c-.333-.3-8.189-7.293-10.911-10.923A8.429,8.429,0,0,1,1.609,8.007,7.462,7.462,0,0,1,6.137,3.014a7.379,7.379,0,0,1,2.739-.559A6.5,6.5,0,0,1,13.257,4.2a9.282,9.282,0,0,1,1.369,1.518A8.7,8.7,0,0,1,21.1,2.455a7.585,7.585,0,0,1,2.825.559A6.435,6.435,0,0,1,27.9,7.356a9.394,9.394,0,0,1-1.759,7.93c-2.722,3.63-10.578,10.627-10.911,10.923A.974.974,0,0,1,14.583,26.455ZM8.876,4.408a5.442,5.442,0,0,0-2.014.42A5.549,5.549,0,0,0,3.489,8.534a6.465,6.465,0,0,0,1.1,5.58c2.166,2.888,8.035,8.277,10,10.052,1.963-1.775,7.832-7.164,10-10.052a7.414,7.414,0,0,0,1.441-6.231A4.547,4.547,0,0,0,23.2,4.827a5.643,5.643,0,0,0-2.1-.42,6.193,6.193,0,0,0-3.643,1.3,7.047,7.047,0,0,0-2,2.24.976.976,0,0,1-1.746,0C13.414,7.359,11.791,4.408,8.876,4.408Z" transform="translate(-1.313 -2.455)" fill="#0e0e1d"/>
</svg>
