<svg xmlns="http://www.w3.org/2000/svg" width="24" height="24" viewBox="0 0 24 24">
  <g id="carro-vacio" transform="translate(85 -1.718)">
    <rect id="Rectángulo_59" data-name="Rectángulo 59" width="24" height="24" transform="translate(-85 1.718)" fill="none"/>
    <path id="Trazado_233" data-name="Trazado 233" d="M39.791,20.763a.889.889,0,0,0-.682-.319H21.186l-.675-3.714a.889.889,0,0,0-.874-.73H16.889a.889.889,0,0,0,0,1.778h2l2.84,15.586a2.666,2.666,0,0,0,.592,1.252,3.111,3.111,0,1,0,4.933.938H32.3a3.11,3.11,0,1,0,2.81-1.778H24.351a.889.889,0,0,1-.874-.73l-.352-1.937H36.012a2.666,2.666,0,0,0,2.623-2.189l1.351-7.428a.889.889,0,0,0-.2-.729M25.777,36.887a1.333,1.333,0,1,1-1.333-1.333,1.333,1.333,0,0,1,1.333,1.333m10.665,0a1.333,1.333,0,1,1-1.333-1.333,1.333,1.333,0,0,1,1.333,1.333m.444-8.285a.889.889,0,0,1-.878.73H22.8l-1.292-7.11H38.043Z" transform="translate(-101 -14.282)" fill="#0e0e1d"/>
  </g>
</svg>
