<svg xmlns="http://www.w3.org/2000/svg" width="14.495" height="13.485" viewBox="0 0 14.495 13.485">
  <path id="Trazado_236" data-name="Trazado 236" d="M7.9.35C7.992.178,8.116,0,8.276,0a.421.421,0,0,1,.456.231,1.29,1.29,0,0,1,.155.374,1.474,1.474,0,0,1,.044.217l.519,4.116c.052.248.2.345.492.347l3.569-.421q.086-.01.172-.013c.089,0,.177,0,.269,0,.642,0,.74.554.163,1.048L10.972,8.7a.463.463,0,0,0-.179.574l1.229,2.976a1.494,1.494,0,0,1,.1.376c.1.737-.428,1.192-1.412.571L7.673,11.46h0a.6.6,0,0,0-.6.008h0l-3.882,1.9c-.452.227-.922.01-.79-.583h0L3.8,8.881c.1-.271-.025-.4-.194-.569h0L.345,5.193c-.552-.485-.433-1.039.3-.959l4.607.458h0A.46.46,0,0,0,5.7,4.416a.592.592,0,0,0,.032-.053Z" transform="translate(0 0)" fill="#003dff"/>
</svg>
