<svg xmlns="http://www.w3.org/2000/svg" xmlns:xlink="http://www.w3.org/1999/xlink" width="214" height="36.022" viewBox="0 0 214 36.022">
  <defs>
    <clipPath id="clip-path">
      <rect id="Rectángulo_5" data-name="Rectángulo 5" width="214" height="36.022" transform="translate(0 0)" fill="none"/>
    </clipPath>
  </defs>
  <g id="Grupo_439" data-name="Grupo 439" clip-path="url(#clip-path)">
    <path id="Trazado_23" data-name="Trazado 23" d="M8.577,20.263a19.731,19.731,0,0,1,5.069-.607c-.13.753-.427,1.966-.687,2.849a9.97,9.97,0,0,1,6.776-2.812c4.084,0,5.774,2.591,5.774,6.524,0,6.579-4.308,11.891-11.047,11.891-2.506,0-4.975-1.268-5.458-2.114-.427,1.452-2.952,8.968-3.825,11.174A31.873,31.873,0,0,1,0,47.61c3.472-9.759,7.426-23.157,8.577-27.347m11.938,6.708c0-1.985-.742-3.088-3.007-3.088a8.589,8.589,0,0,0-5.532,2.3c-.186.717-1.281,4.374-1.5,5.054a5,5,0,0,0,4.289,1.856c3.676,0,5.755-2.555,5.755-6.12" transform="translate(0 -13.095)" fill="#f2462a"/>
    <path id="Trazado_24" data-name="Trazado 24" d="M76.493,34.78c0-5.422,5.422-7.388,10.88-7.388a12.644,12.644,0,0,1,4.845.9,5.333,5.333,0,0,0-.093-1.93c-.3-1.525-1.727-2.26-3.917-2.26a8.342,8.342,0,0,0-5.885,2.555l-3.3-2.573A14.327,14.327,0,0,1,89.081,20.1c4.752,0,7.686,1.728,7.686,6.01a17.242,17.242,0,0,1-.687,4.209,18.922,18.922,0,0,0-.892,4.5c0,.7.242.864.724.864A1.982,1.982,0,0,0,97.6,34.358l1.114,3.106a4.309,4.309,0,0,1-4.084,2.389c-1.986,0-2.97-1.047-2.97-3.179-.984,1.617-4.307,3.382-8.169,3.382-4.252,0-7-1.507-7-5.275m14.463-.625c.223-1.011.464-1.966.668-2.7a13.4,13.4,0,0,0-4.27-.625c-2.562,0-5.607.956-5.607,3.106,0,1.636,1.1,2.279,3.528,2.279a9.425,9.425,0,0,0,5.681-2.059" transform="translate(-50.96 -13.388)" fill="#f2462a"/>
    <path id="Trazado_25" data-name="Trazado 25" d="M159.118,19.766a7.128,7.128,0,0,1,3.119.607L159.824,25.5a5.447,5.447,0,0,0-2.488-.569,8.224,8.224,0,0,0-5.5,2.61,108.2,108.2,0,0,1-1.875,11.836,49.333,49.333,0,0,1-5.588.2c1.411-5.44,3.175-14.17,3.268-18.783a39.85,39.85,0,0,1,4.53-.9c0,.882-.019,2.481-.056,3.2a9.867,9.867,0,0,1,7-3.327" transform="translate(-96.184 -13.168)" fill="#f2462a"/>
    <path id="Trazado_26" data-name="Trazado 26" d="M205.108,27.163c-3.137,0-4.418-2.04-4.418-4.7,0-2.536,1.894-9.41,2.822-12.019-2.154.22-4.121.514-4.734.643a27.481,27.481,0,0,1,.762-4.319c1.466-.2,3.267-.386,5.087-.5.315-1.047.613-2.205.891-3.29.242-.956.464-2,.575-2.591L210.938,0c-.037.276-.427,1.82-.873,3.474-.2.772-.427,1.636-.65,2.555.78-.037,2.079-.11,2.747-.129,1.634-.055,2.989-.018,3.268-.018a36.614,36.614,0,0,1-.891,3.952c-.241,0-1.949.018-3.3.073-.929.055-2.135.129-3.008.2-.947,2.665-2.785,8.877-2.785,10.917,0,1.066.241,1.709,1.244,1.709,1.318,0,2.284-1.434,2.84-2.279.26.368,1.616,3.143,1.82,3.492a7.171,7.171,0,0,1-6.238,3.216" transform="translate(-132.426 0)" fill="#f2462a"/>
    <path id="Trazado_27" data-name="Trazado 27" d="M228.408,50.12a34.02,34.02,0,0,1,3.36-4.153,10.009,10.009,0,0,0,5.792,2.187c3.862,0,6.312-4.466,7.519-8.693a6.6,6.6,0,0,1-5.7,2.812c-3.657,0-4.994-2.132-4.994-5.44,0-3.216,1.262-7.388,2.673-11.707A14.893,14.893,0,0,1,239.194,25a18.546,18.546,0,0,1,2.841.165c-1.077,2.592-2.636,7.315-2.636,9.869,0,1.544.5,2.61,1.912,2.61,2.618,0,4.641-2.775,6.015-7.186.668-1.985,1.411-4.65,1.485-5.054a15.129,15.129,0,0,1,1.578-.073,12.057,12.057,0,0,1,2.859.312c-.278,1.268-.65,2.738-1.1,4.374-.928,3.437-2.284,7.829-3.6,11.946-2.061,6.377-5.7,10.715-11.826,10.715a14.119,14.119,0,0,1-8.317-2.555" transform="translate(-152.166 -16.653)" fill="#f2462a"/>
    <path id="Trazado_28" data-name="Trazado 28" d="M349.353,17.7a31.5,31.5,0,0,0-3.434.846c.056-.607.353-3.088.557-4.172,1.058-.257,2.246-.5,3.49-.735.241-1.36.483-2.555.687-3.345,1.355-5.036,4.326-8.913,9.1-8.913,3.639,0,4.92,2.316,5.068,2.885-.427.551-2.544,3.529-2.9,3.952a3.1,3.1,0,0,0-2.915-2.187c-1.8,0-2.822,1.893-3.379,3.9-.186.754-.409,1.8-.613,3.014,1.485-.147,2.971-.239,4.345-.239,3.434,0,6,.11,8.707.331a49.2,49.2,0,0,1-1.782,6.23c-1.077,3.327-2.3,7-2.822,8.271-.743,0-3.6-.313-4.159-.386.409-1.195,1.931-6.285,3.045-10.071-1.615-.147-3.769-.239-5.811-.239-.668,0-1.393.037-2.154.11-.594,4.172-1.058,8.656-1.058,9.906-.91.11-4.233.386-4.939.386,0-1.6.427-5.661.965-9.539m15.465-9.41a4.048,4.048,0,0,1,3.769-3.841A1.925,1.925,0,0,1,370.741,6.5a3.812,3.812,0,0,1-3.806,3.915,2.016,2.016,0,0,1-2.116-2.132" transform="translate(-230.452 -0.917)" fill="#f2462a"/>
    <path id="Trazado_29" data-name="Trazado 29" d="M423.335,39.8c-4.66,0-7.63-2.463-7.63-7.057a12.055,12.055,0,0,1,12.457-12.534c4.289,0,6.647,2.242,6.647,5.991a10.234,10.234,0,0,1-.947,4.227c-.613-.018-5.328-.073-6.906-.037a53.6,53.6,0,0,0-6.034.441,4.006,4.006,0,0,0-.167,1.286c0,1.8,1.541,2.977,3.694,2.977,2.748,0,4.66-1.728,5.886-2.665a13.6,13.6,0,0,1,2.432,3.786,13.348,13.348,0,0,1-9.431,3.584m3.917-12.442c1.374-.018,2.8-.018,3.082,0a5.568,5.568,0,0,0,.149-1.286c-.037-1.379-.91-2.591-2.952-2.591a5.869,5.869,0,0,0-5.681,4.245,44.812,44.812,0,0,1,5.4-.368" transform="translate(-276.943 -13.461)" fill="#f2462a"/>
    <path id="Trazado_30" data-name="Trazado 30" d="M468.327,36.017a29.27,29.27,0,0,1,3.75-4.374c1.262,1.636,3.342,3.271,5.477,3.271,1.912,0,3.806-.882,3.806-2.757,0-1.4-1.429-2.316-3.471-3.179-2.674-1.176-4.474-2.72-4.474-5.477,0-4.356,4.511-6.377,8.856-6.377a11.1,11.1,0,0,1,6.813,1.948,21.5,21.5,0,0,1-3.138,3.657,6.173,6.173,0,0,0-4.066-1.764c-1.56,0-3.676.515-3.676,2.114,0,1.066,1.077,1.782,3.063,2.628,2.711,1.1,5.05,3,5.05,6.028,0,4.834-4.678,7.48-9.766,7.48-4.214,0-7.333-1.856-8.224-3.2" transform="translate(-312 -11.408)" fill="#f2462a"/>
    <path id="Trazado_31" data-name="Trazado 31" d="M538.626,27.163c-3.137,0-4.419-2.04-4.419-4.7,0-2.536,1.894-9.41,2.822-12.019-2.154.22-4.122.514-4.734.643a27.491,27.491,0,0,1,.761-4.319c1.467-.2,3.267-.386,5.087-.5.316-1.047.613-2.205.891-3.29.241-.956.464-2,.575-2.591L544.456,0c-.037.276-.427,1.82-.872,3.474-.2.772-.427,1.636-.65,2.555.78-.037,2.079-.11,2.747-.129,1.634-.055,2.989-.018,3.268-.018a36.785,36.785,0,0,1-.891,3.952c-.241,0-1.95.018-3.3.073-.928.055-2.135.129-3.008.2-.947,2.665-2.784,8.877-2.784,10.917,0,1.066.241,1.709,1.244,1.709,1.318,0,2.284-1.434,2.84-2.279.26.368,1.615,3.143,1.82,3.492a7.17,7.17,0,0,1-6.238,3.216" transform="translate(-354.616 0)" fill="#f2462a"/>
    <path id="Trazado_32" data-name="Trazado 32" d="M574.531,34.78c0-5.422,5.421-7.388,10.879-7.388a12.645,12.645,0,0,1,4.846.9,5.334,5.334,0,0,0-.093-1.93c-.3-1.525-1.727-2.26-3.917-2.26a8.342,8.342,0,0,0-5.885,2.555l-3.3-2.573A14.328,14.328,0,0,1,587.119,20.1c4.753,0,7.686,1.728,7.686,6.01a17.259,17.259,0,0,1-.687,4.209,18.92,18.92,0,0,0-.891,4.5c0,.7.241.864.724.864a1.982,1.982,0,0,0,1.689-1.323l1.114,3.106a4.31,4.31,0,0,1-4.084,2.389c-1.986,0-2.97-1.047-2.97-3.179-.984,1.617-4.307,3.382-8.169,3.382-4.252,0-7-1.507-7-5.275m14.462-.625c.223-1.011.464-1.966.668-2.7a13.4,13.4,0,0,0-4.27-.625c-2.562,0-5.607.956-5.607,3.106,0,1.636,1.1,2.279,3.527,2.279a9.425,9.425,0,0,0,5.681-2.059" transform="translate(-382.754 -13.388)" fill="#f2462a"/>
    <path id="Trazado_33" data-name="Trazado 33" d="M313.184,33.85a1.207,1.207,0,0,1,.121.3,1.158,1.158,0,0,1,.03.162l.385,3.057a.383.383,0,0,0,.368.259l2.661-.314c.04,0,.081-.008.122-.01.07,0,.14,0,.212,0,.48,0,.568.437.121.782l-2.347,2.091a.381.381,0,0,0-.134.429l.911,2.205a1.187,1.187,0,0,1,.079.26c.095.572-.3.94-1.049.465l-2.271-1.294a.384.384,0,0,0-.45.006l-2.9,1.422c-.337.17-.689.008-.59-.435l1.047-2.919a.381.381,0,0,0-.145-.425l-2.435-2.33c-.412-.363-.323-.776.225-.716l3.441.342a.383.383,0,0,0,.361-.268l1.614-2.975c.071-.128.164-.247.283-.26a.314.314,0,0,1,.341.173" transform="translate(-204.299 -22.433)" fill="#f2462a"/>
  </g>
</svg>
